<svg id="visual" viewBox="0 0 900 600" width="900" height="600" xmlns="http://www.w3.org/2000/svg" xmlns:xlink="http://www.w3.org/1999/xlink" version="1.1"><rect x="0" y="0" width="900" height="600" fill="#fff"></rect><path d="M121 0L114.7 8.3C108.3 16.7 95.7 33.3 88 50C80.3 66.7 77.7 83.3 74.7 100C71.7 116.7 68.3 133.3 75.8 150C83.3 166.7 101.7 183.3 108.5 200C115.3 216.7 110.7 233.3 103.3 250C96 266.7 86 283.3 82 300C78 316.7 80 333.3 83.8 350C87.7 366.7 93.3 383.3 100.3 400C107.3 416.7 115.7 433.3 109.5 450C103.3 466.7 82.7 483.3 72.8 500C63 516.7 64 533.3 73.8 550C83.7 566.7 102.3 583.3 111.7 591.7L121 600L0 600L0 591.7C0 583.3 0 566.7 0 550C0 533.3 0 516.7 0 500C0 483.3 0 466.7 0 450C0 433.3 0 416.7 0 400C0 383.3 0 366.7 0 350C0 333.3 0 316.7 0 300C0 283.3 0 266.7 0 250C0 233.3 0 216.7 0 200C0 183.3 0 166.7 0 150C0 133.3 0 116.7 0 100C0 83.3 0 66.7 0 50C0 33.3 0 16.7 0 8.3L0 0Z" fill="#0066FF" stroke-linecap="round" stroke-linejoin="miter"></path></svg>